<svg width="300" height="300" viewBox="0 0 300 300" fill="none" xmlns="http://www.w3.org/2000/svg">
<rect y="64" width="236" height="236" rx="50" fill="white"/>
<g filter="url(#filter0_iiiii_164_3426)">
<rect y="64" width="236" height="236" fill="#BDCED6"/>
</g>
<g clip-path="url(#clip0_164_3426)">
<rect x="67.9166" y="133" width="9.91667" height="8.08333" fill="#050101" fill-opacity="0.145098"/>
<rect x="77.8334" y="133" width="9.91667" height="8.08333" fill="#100404" fill-opacity="0.501961"/>
<rect x="87.75" y="133" width="9.91667" height="8.08333" fill="#100404" fill-opacity="0.501961"/>
<rect x="97.6666" y="133" width="9.91667" height="8.08333" fill="#100404" fill-opacity="0.501961"/>
<rect x="107.583" y="133" width="9.91667" height="8.08333" fill="#100404" fill-opacity="0.501961"/>
<rect x="117.5" y="133" width="9.91667" height="8.08333" fill="#100404" fill-opacity="0.501961"/>
<rect x="127.417" y="133" width="9.91667" height="8.08333" fill="#100404" fill-opacity="0.501961"/>
<rect x="137.333" y="133" width="9.91667" height="8.08333" fill="#100404" fill-opacity="0.501961"/>
<rect x="147.25" y="133" width="9.91667" height="8.08333" fill="#100404" fill-opacity="0.501961"/>
<rect x="157.167" y="133" width="9.91667" height="8.08333" fill="#0D0303" fill-opacity="0.407843"/>
<rect x="58" y="141.083" width="9.91667" height="8.08333" fill="#0B0303" fill-opacity="0.329412"/>
<rect x="67.9166" y="141.083" width="9.91667" height="8.08333" fill="#070202" fill-opacity="0.192157"/>
<rect x="77.8334" y="141.083" width="9.91667" height="8.08333" fill="#100404" fill-opacity="0.501961"/>
<rect x="87.75" y="141.083" width="9.91667" height="8.08333" fill="#100404" fill-opacity="0.501961"/>
<rect x="97.6666" y="141.083" width="9.91667" height="8.08333" fill="#100404" fill-opacity="0.501961"/>
<rect x="107.583" y="141.083" width="9.91667" height="8.08333" fill="#100404" fill-opacity="0.501961"/>
<rect x="117.5" y="141.083" width="9.91667" height="8.08333" fill="#100404" fill-opacity="0.501961"/>
<rect x="127.417" y="141.083" width="9.91667" height="8.08333" fill="#100404" fill-opacity="0.501961"/>
<rect x="137.333" y="141.083" width="9.91667" height="8.08333" fill="#100404" fill-opacity="0.501961"/>
<rect x="147.25" y="141.083" width="9.91667" height="8.08333" fill="#100404" fill-opacity="0.501961"/>
<rect x="157.167" y="141.083" width="9.91667" height="8.08333" fill="#0D0303" fill-opacity="0.407843"/>
<rect x="167.083" y="141.083" width="9.91667" height="8.08333" fill="#070202" fill-opacity="0.2"/>
<rect x="58" y="149.167" width="9.91667" height="8.08333" fill="#100404" fill-opacity="0.501961"/>
<rect x="67.9166" y="149.167" width="9.91667" height="8.08333" fill="#080202" fill-opacity="0.215686"/>
<rect x="77.8334" y="149.167" width="9.91667" height="8.08333" fill="#100404" fill-opacity="0.501961"/>
<rect x="87.75" y="149.167" width="9.91667" height="8.08333" fill="#100404" fill-opacity="0.501961"/>
<rect x="97.6666" y="149.167" width="9.91667" height="8.08333" fill="#100404" fill-opacity="0.501961"/>
<rect x="107.583" y="149.167" width="9.91667" height="8.08333" fill="#100404" fill-opacity="0.501961"/>
<rect x="117.5" y="149.167" width="9.91667" height="8.08333" fill="#100404" fill-opacity="0.501961"/>
<rect x="127.417" y="149.167" width="9.91667" height="8.08333" fill="#100404" fill-opacity="0.501961"/>
<rect x="137.333" y="149.167" width="9.91667" height="8.08333" fill="#100404" fill-opacity="0.501961"/>
<rect x="147.25" y="149.167" width="9.91667" height="8.08333" fill="#100404" fill-opacity="0.501961"/>
<rect x="157.167" y="149.167" width="9.91667" height="8.08333" fill="#0D0303" fill-opacity="0.407843"/>
<rect x="167.083" y="149.167" width="9.91667" height="8.08333" fill="#0A0202" fill-opacity="0.305882"/>
<rect x="58" y="157.25" width="9.91667" height="8.08333" fill="#100404" fill-opacity="0.501961"/>
<rect x="67.9166" y="157.25" width="9.91667" height="8.08333" fill="#080202" fill-opacity="0.215686"/>
<rect x="77.8334" y="157.25" width="9.91667" height="8.08333" fill="#100404" fill-opacity="0.501961"/>
<rect x="87.75" y="157.25" width="9.91667" height="8.08333" fill="#100404" fill-opacity="0.501961"/>
<rect x="97.6666" y="157.25" width="9.91667" height="8.08333" fill="#100404" fill-opacity="0.501961"/>
<rect x="107.583" y="157.25" width="9.91667" height="8.08333" fill="#100404" fill-opacity="0.501961"/>
<rect x="117.5" y="157.25" width="9.91667" height="8.08333" fill="#100404" fill-opacity="0.501961"/>
<rect x="127.417" y="157.25" width="9.91667" height="8.08333" fill="#100404" fill-opacity="0.501961"/>
<rect x="137.333" y="157.25" width="9.91667" height="8.08333" fill="#100404" fill-opacity="0.501961"/>
<rect x="147.25" y="157.25" width="9.91667" height="8.08333" fill="#100404" fill-opacity="0.501961"/>
<rect x="157.167" y="157.25" width="9.91667" height="8.08333" fill="#0D0303" fill-opacity="0.407843"/>
<rect x="167.083" y="157.25" width="9.91667" height="8.08333" fill="#0A0202" fill-opacity="0.305882"/>
<rect x="58" y="165.333" width="9.91667" height="8.08333" fill="#010000" fill-opacity="0.0196078"/>
<rect x="67.9166" y="165.333" width="9.91667" height="8.08333" fill="#050101" fill-opacity="0.137255"/>
<rect x="77.8334" y="165.333" width="9.91667" height="8.08333" fill="#100404" fill-opacity="0.501961"/>
<rect x="87.75" y="165.333" width="9.91667" height="8.08333" fill="#100404" fill-opacity="0.501961"/>
<rect x="97.6666" y="165.333" width="9.91667" height="8.08333" fill="#100404" fill-opacity="0.501961"/>
<rect x="107.583" y="165.333" width="9.91667" height="8.08333" fill="#100404" fill-opacity="0.501961"/>
<rect x="117.5" y="165.333" width="9.91667" height="8.08333" fill="#100404" fill-opacity="0.501961"/>
<rect x="127.417" y="165.333" width="9.91667" height="8.08333" fill="#100404" fill-opacity="0.501961"/>
<rect x="137.333" y="165.333" width="9.91667" height="8.08333" fill="#100404" fill-opacity="0.501961"/>
<rect x="147.25" y="165.333" width="9.91667" height="8.08333" fill="#100404" fill-opacity="0.501961"/>
<rect x="157.167" y="165.333" width="9.91667" height="8.08333" fill="#0D0303" fill-opacity="0.4"/>
<rect x="167.083" y="165.333" width="9.91667" height="8.08333" fill="#010000" fill-opacity="0.0117647"/>
<rect x="67.9166" y="173.417" width="9.91667" height="8.08333" fill="#020101" fill-opacity="0.0588235"/>
<rect x="77.8334" y="173.417" width="9.91667" height="8.08333" fill="#100404" fill-opacity="0.501961"/>
<rect x="87.75" y="173.417" width="9.91667" height="8.08333" fill="#100404" fill-opacity="0.501961"/>
<rect x="97.6666" y="173.417" width="9.91667" height="8.08333" fill="#100404" fill-opacity="0.501961"/>
<rect x="107.583" y="173.417" width="9.91667" height="8.08333" fill="#100404" fill-opacity="0.501961"/>
<rect x="117.5" y="173.417" width="9.91667" height="8.08333" fill="#100404" fill-opacity="0.501961"/>
<rect x="127.417" y="173.417" width="9.91667" height="8.08333" fill="#100404" fill-opacity="0.501961"/>
<rect x="137.333" y="173.417" width="9.91667" height="8.08333" fill="#100404" fill-opacity="0.501961"/>
<rect x="147.25" y="173.417" width="9.91667" height="8.08333" fill="#100404" fill-opacity="0.501961"/>
<rect x="157.167" y="173.417" width="9.91667" height="8.08333" fill="#0B0303" fill-opacity="0.321569"/>
<rect x="77.8334" y="181.5" width="9.91667" height="8.08333" fill="#0D0303" fill-opacity="0.392157"/>
<rect x="87.75" y="181.5" width="9.91667" height="8.08333" fill="#100404" fill-opacity="0.501961"/>
<rect x="97.6666" y="181.5" width="9.91667" height="8.08333" fill="#100404" fill-opacity="0.501961"/>
<rect x="107.583" y="181.5" width="9.91667" height="8.08333" fill="#100404" fill-opacity="0.501961"/>
<rect x="117.5" y="181.5" width="9.91667" height="8.08333" fill="#100404" fill-opacity="0.501961"/>
<rect x="127.417" y="181.5" width="9.91667" height="8.08333" fill="#100404" fill-opacity="0.501961"/>
<rect x="137.333" y="181.5" width="9.91667" height="8.08333" fill="#100404" fill-opacity="0.501961"/>
<rect x="147.25" y="181.5" width="9.91667" height="8.08333" fill="#100404" fill-opacity="0.501961"/>
<rect x="157.167" y="181.5" width="9.91667" height="8.08333" fill="#050101" fill-opacity="0.152941"/>
<rect x="77.8334" y="189.583" width="9.91667" height="8.08333" fill="#040101" fill-opacity="0.117647"/>
<rect x="87.75" y="189.583" width="9.91667" height="8.08333" fill="#100404" fill-opacity="0.494118"/>
<rect x="97.6666" y="189.583" width="9.91667" height="8.08333" fill="#100404" fill-opacity="0.501961"/>
<rect x="107.583" y="189.583" width="9.91667" height="8.08333" fill="#100404" fill-opacity="0.501961"/>
<rect x="117.5" y="189.583" width="9.91667" height="8.08333" fill="#100404" fill-opacity="0.501961"/>
<rect x="127.417" y="189.583" width="9.91667" height="8.08333" fill="#100404" fill-opacity="0.501961"/>
<rect x="137.333" y="189.583" width="9.91667" height="8.08333" fill="#100404" fill-opacity="0.501961"/>
<rect x="147.25" y="189.583" width="9.91667" height="8.08333" fill="#0C0303" fill-opacity="0.368627"/>
<rect x="157.167" y="189.583" width="9.91667" height="8.08333" fill="black" fill-opacity="0.01"/>
<rect x="87.75" y="197.667" width="9.91667" height="8.08333" fill="#060101" fill-opacity="0.160784"/>
<rect x="97.6666" y="197.667" width="9.91667" height="8.08333" fill="#0F0404" fill-opacity="0.470588"/>
<rect x="107.583" y="197.667" width="9.91667" height="8.08333" fill="#100404" fill-opacity="0.501961"/>
<rect x="117.5" y="197.667" width="9.91667" height="8.08333" fill="#100404" fill-opacity="0.501961"/>
<rect x="127.417" y="197.667" width="9.91667" height="8.08333" fill="#100404" fill-opacity="0.501961"/>
<rect x="137.333" y="197.667" width="9.91667" height="8.08333" fill="#0C0303" fill-opacity="0.360784"/>
<rect x="147.25" y="197.667" width="9.91667" height="8.08333" fill="#010000" fill-opacity="0.0313726"/>
<rect x="97.6666" y="205.75" width="9.91667" height="8.08333" fill="#010000" fill-opacity="0.0313726"/>
<rect x="107.583" y="205.75" width="9.91667" height="8.08333" fill="#090202" fill-opacity="0.262745"/>
<rect x="117.5" y="205.75" width="9.91667" height="8.08333" fill="#0E0404" fill-opacity="0.45098"/>
<rect x="127.417" y="205.75" width="9.91667" height="8.08333" fill="#040101" fill-opacity="0.109804"/>
<rect x="77.8334" y="213.833" width="9.91667" height="8.08333" fill="#010000" fill-opacity="0.0156863"/>
<rect x="87.75" y="213.833" width="9.91667" height="8.08333" fill="#040101" fill-opacity="0.109804"/>
<rect x="97.6666" y="213.833" width="9.91667" height="8.08333" fill="#040101" fill-opacity="0.109804"/>
<rect x="107.583" y="213.833" width="9.91667" height="8.08333" fill="#080202" fill-opacity="0.231373"/>
<rect x="117.5" y="213.833" width="9.91667" height="8.08333" fill="#0E0404" fill-opacity="0.439216"/>
<rect x="127.417" y="213.833" width="9.91667" height="8.08333" fill="#040101" fill-opacity="0.109804"/>
<rect x="137.333" y="213.833" width="9.91667" height="8.08333" fill="#040101" fill-opacity="0.109804"/>
<rect x="147.25" y="213.833" width="9.91667" height="8.08333" fill="#030101" fill-opacity="0.0745098"/>
<rect x="77.8334" y="221.917" width="9.91667" height="8.08333" fill="#030101" fill-opacity="0.0745098"/>
<rect x="87.75" y="221.917" width="9.91667" height="8.08333" fill="#100404" fill-opacity="0.501961"/>
<rect x="97.6666" y="221.917" width="9.91667" height="8.08333" fill="#100404" fill-opacity="0.501961"/>
<rect x="107.583" y="221.917" width="9.91667" height="8.08333" fill="#100404" fill-opacity="0.501961"/>
<rect x="117.5" y="221.917" width="9.91667" height="8.08333" fill="#100404" fill-opacity="0.501961"/>
<rect x="127.417" y="221.917" width="9.91667" height="8.08333" fill="#100404" fill-opacity="0.501961"/>
<rect x="137.333" y="221.917" width="9.91667" height="8.08333" fill="#100404" fill-opacity="0.501961"/>
<rect x="147.25" y="221.917" width="9.91667" height="8.08333" fill="#0B0303" fill-opacity="0.341176"/>
</g>
<defs>
<filter id="filter0_iiiii_164_3426" x="0" y="64" width="236" height="236" filterUnits="userSpaceOnUse" color-interpolation-filters="sRGB">
<feFlood flood-opacity="0" result="BackgroundImageFix"/>
<feBlend mode="normal" in="SourceGraphic" in2="BackgroundImageFix" result="shape"/>
<feColorMatrix in="SourceAlpha" type="matrix" values="0 0 0 0 0 0 0 0 0 0 0 0 0 0 0 0 0 0 127 0" result="hardAlpha"/>
<feOffset dx="-4" dy="-4"/>
<feComposite in2="hardAlpha" operator="arithmetic" k2="-1" k3="1"/>
<feColorMatrix type="matrix" values="0 0 0 0 0.482353 0 0 0 0 0.517647 0 0 0 0 0.580392 0 0 0 1 0"/>
<feBlend mode="normal" in2="shape" result="effect1_innerShadow_164_3426"/>
<feColorMatrix in="SourceAlpha" type="matrix" values="0 0 0 0 0 0 0 0 0 0 0 0 0 0 0 0 0 0 127 0" result="hardAlpha"/>
<feOffset dx="-2" dy="-2"/>
<feComposite in2="hardAlpha" operator="arithmetic" k2="-1" k3="1"/>
<feColorMatrix type="matrix" values="0 0 0 0 0.290196 0 0 0 0 0.352941 0 0 0 0 0.419608 0 0 0 1 0"/>
<feBlend mode="normal" in2="effect1_innerShadow_164_3426" result="effect2_innerShadow_164_3426"/>
<feColorMatrix in="SourceAlpha" type="matrix" values="0 0 0 0 0 0 0 0 0 0 0 0 0 0 0 0 0 0 127 0" result="hardAlpha"/>
<feOffset dx="4" dy="4"/>
<feComposite in2="hardAlpha" operator="arithmetic" k2="-1" k3="1"/>
<feColorMatrix type="matrix" values="0 0 0 0 0.937255 0 0 0 0 1 0 0 0 0 1 0 0 0 1 0"/>
<feBlend mode="normal" in2="effect2_innerShadow_164_3426" result="effect3_innerShadow_164_3426"/>
<feColorMatrix in="SourceAlpha" type="matrix" values="0 0 0 0 0 0 0 0 0 0 0 0 0 0 0 0 0 0 127 0" result="hardAlpha"/>
<feOffset dx="2" dy="2"/>
<feComposite in2="hardAlpha" operator="arithmetic" k2="-1" k3="1"/>
<feColorMatrix type="matrix" values="0 0 0 0 0.678431 0 0 0 0 0.709804 0 0 0 0 0.776471 0 0 0 1 0"/>
<feBlend mode="normal" in2="effect3_innerShadow_164_3426" result="effect4_innerShadow_164_3426"/>
<feColorMatrix in="SourceAlpha" type="matrix" values="0 0 0 0 0 0 0 0 0 0 0 0 0 0 0 0 0 0 127 0" result="hardAlpha"/>
<feOffset dx="-2" dy="-2"/>
<feComposite in2="hardAlpha" operator="arithmetic" k2="-1" k3="1"/>
<feColorMatrix type="matrix" values="0 0 0 0 0.290196 0 0 0 0 0.352941 0 0 0 0 0.419608 0 0 0 1 0"/>
<feBlend mode="normal" in2="effect4_innerShadow_164_3426" result="effect5_innerShadow_164_3426"/>
</filter>
<clipPath id="clip0_164_3426">
<rect width="119" height="97" fill="white" transform="translate(58 133)"/>
</clipPath>
</defs>
</svg>
