<svg width="300" height="300" viewBox="0 0 300 300" fill="none" xmlns="http://www.w3.org/2000/svg">
<g filter="url(#filter0_iiiii_164_3423)">
<rect width="236" height="236" fill="#BDCED6"/>
</g>
<g clip-path="url(#clip0_164_3423)">
<rect x="102" y="20" width="16" height="16" fill="#010000" fill-opacity="0.027451"/>
<rect x="118" y="20" width="16" height="16" fill="#050101" fill-opacity="0.137255"/>
<rect x="102" y="36" width="16" height="17" fill="#060202" fill-opacity="0.184314"/>
<rect x="118" y="36" width="16" height="17" fill="#0B0303" fill-opacity="0.321569"/>
<rect x="102" y="53" width="16" height="16" fill="#0B0303" fill-opacity="0.34902"/>
<rect x="118" y="53" width="16" height="16" fill="#0F0404" fill-opacity="0.47451"/>
<rect x="134" y="53" width="16" height="16" fill="#010000" fill-opacity="0.0156863"/>
<rect x="86" y="69" width="16" height="17" fill="#010000" fill-opacity="0.0313726"/>
<rect x="102" y="69" width="16" height="17" fill="#100404" fill-opacity="0.490196"/>
<rect x="118" y="69" width="16" height="17" fill="#100404" fill-opacity="0.501961"/>
<rect x="134" y="69" width="16" height="17" fill="#050101" fill-opacity="0.152941"/>
<rect x="20" y="86" width="16" height="16" fill="#050101" fill-opacity="0.14902"/>
<rect x="36" y="86" width="17" height="16" fill="#070202" fill-opacity="0.219608"/>
<rect x="53" y="86" width="16" height="16" fill="#080202" fill-opacity="0.231373"/>
<rect x="69" y="86" width="17" height="16" fill="#080202" fill-opacity="0.239216"/>
<rect x="86" y="86" width="16" height="16" fill="#0A0303" fill-opacity="0.321569"/>
<rect x="102" y="86" width="16" height="16" fill="#100404" fill-opacity="0.501961"/>
<rect x="118" y="86" width="16" height="16" fill="#100404" fill-opacity="0.501961"/>
<rect x="134" y="86" width="16" height="16" fill="#0D0303" fill-opacity="0.392157"/>
<rect x="150" y="86" width="17" height="16" fill="#080202" fill-opacity="0.243137"/>
<rect x="167" y="86" width="16" height="16" fill="#080202" fill-opacity="0.231373"/>
<rect x="183" y="86" width="17" height="16" fill="#070202" fill-opacity="0.223529"/>
<rect x="200" y="86" width="16" height="16" fill="#070202" fill-opacity="0.196078"/>
<rect x="20" y="102" width="16" height="16" fill="#010000" fill-opacity="0.0392157"/>
<rect x="36" y="102" width="17" height="16" fill="#0C0303" fill-opacity="0.364706"/>
<rect x="53" y="102" width="16" height="16" fill="#100404" fill-opacity="0.501961"/>
<rect x="69" y="102" width="17" height="16" fill="#100404" fill-opacity="0.501961"/>
<rect x="86" y="102" width="16" height="16" fill="#100404" fill-opacity="0.501961"/>
<rect x="102" y="102" width="16" height="16" fill="#100404" fill-opacity="0.501961"/>
<rect x="118" y="102" width="16" height="16" fill="#100404" fill-opacity="0.501961"/>
<rect x="134" y="102" width="16" height="16" fill="#100404" fill-opacity="0.501961"/>
<rect x="150" y="102" width="17" height="16" fill="#100404" fill-opacity="0.501961"/>
<rect x="167" y="102" width="16" height="16" fill="#100404" fill-opacity="0.501961"/>
<rect x="183" y="102" width="17" height="16" fill="#0E0404" fill-opacity="0.439216"/>
<rect x="200" y="102" width="16" height="16" fill="#040101" fill-opacity="0.101961"/>
<rect x="36" y="118" width="17" height="16" fill="black" fill-opacity="0.01"/>
<rect x="53" y="118" width="16" height="16" fill="#090202" fill-opacity="0.258824"/>
<rect x="69" y="118" width="17" height="16" fill="#100404" fill-opacity="0.498039"/>
<rect x="86" y="118" width="16" height="16" fill="#100404" fill-opacity="0.501961"/>
<rect x="102" y="118" width="16" height="16" fill="#100404" fill-opacity="0.501961"/>
<rect x="118" y="118" width="16" height="16" fill="#100404" fill-opacity="0.501961"/>
<rect x="134" y="118" width="16" height="16" fill="#100404" fill-opacity="0.501961"/>
<rect x="150" y="118" width="17" height="16" fill="#100404" fill-opacity="0.501961"/>
<rect x="167" y="118" width="16" height="16" fill="#0C0303" fill-opacity="0.364706"/>
<rect x="183" y="118" width="17" height="16" fill="#010000" fill-opacity="0.0392157"/>
<rect x="69" y="134" width="17" height="16" fill="#080202" fill-opacity="0.239216"/>
<rect x="86" y="134" width="16" height="16" fill="#100404" fill-opacity="0.501961"/>
<rect x="102" y="134" width="16" height="16" fill="#100404" fill-opacity="0.501961"/>
<rect x="118" y="134" width="16" height="16" fill="#100404" fill-opacity="0.501961"/>
<rect x="134" y="134" width="16" height="16" fill="#100404" fill-opacity="0.501961"/>
<rect x="150" y="134" width="17" height="16" fill="#0C0303" fill-opacity="0.372549"/>
<rect x="167" y="134" width="16" height="16" fill="black" fill-opacity="0.01"/>
<rect x="69" y="150" width="17" height="17" fill="#0A0303" fill-opacity="0.301961"/>
<rect x="86" y="150" width="16" height="17" fill="#100404" fill-opacity="0.501961"/>
<rect x="102" y="150" width="16" height="17" fill="#100404" fill-opacity="0.501961"/>
<rect x="118" y="150" width="16" height="17" fill="#100404" fill-opacity="0.501961"/>
<rect x="134" y="150" width="16" height="17" fill="#100404" fill-opacity="0.501961"/>
<rect x="150" y="150" width="17" height="17" fill="#0E0404" fill-opacity="0.439216"/>
<rect x="69" y="167" width="17" height="16" fill="#0F0404" fill-opacity="0.447059"/>
<rect x="86" y="167" width="16" height="16" fill="#100404" fill-opacity="0.501961"/>
<rect x="102" y="167" width="16" height="16" fill="#0C0303" fill-opacity="0.372549"/>
<rect x="118" y="167" width="16" height="16" fill="#0A0202" fill-opacity="0.286275"/>
<rect x="134" y="167" width="16" height="16" fill="#100404" fill-opacity="0.498039"/>
<rect x="150" y="167" width="17" height="16" fill="#100404" fill-opacity="0.501961"/>
<rect x="167" y="167" width="16" height="16" fill="#030101" fill-opacity="0.0862745"/>
<rect x="53" y="183" width="16" height="17" fill="#030101" fill-opacity="0.0941176"/>
<rect x="69" y="183" width="17" height="17" fill="#100404" fill-opacity="0.494118"/>
<rect x="86" y="183" width="16" height="17" fill="#080202" fill-opacity="0.239216"/>
<rect x="102" y="183" width="16" height="17" fill="black" fill-opacity="0.01"/>
<rect x="134" y="183" width="16" height="17" fill="#050101" fill-opacity="0.141176"/>
<rect x="150" y="183" width="17" height="17" fill="#0F0404" fill-opacity="0.454902"/>
<rect x="167" y="183" width="16" height="17" fill="#080202" fill-opacity="0.231373"/>
<rect x="53" y="200" width="16" height="16" fill="#060202" fill-opacity="0.172549"/>
<rect x="69" y="200" width="17" height="16" fill="#040101" fill-opacity="0.109804"/>
<rect x="150" y="200" width="17" height="16" fill="#020000" fill-opacity="0.0470588"/>
<rect x="167" y="200" width="16" height="16" fill="#080202" fill-opacity="0.239216"/>
</g>
<defs>
<filter id="filter0_iiiii_164_3423" x="0" y="0" width="236" height="236" filterUnits="userSpaceOnUse" color-interpolation-filters="sRGB">
<feFlood flood-opacity="0" result="BackgroundImageFix"/>
<feBlend mode="normal" in="SourceGraphic" in2="BackgroundImageFix" result="shape"/>
<feColorMatrix in="SourceAlpha" type="matrix" values="0 0 0 0 0 0 0 0 0 0 0 0 0 0 0 0 0 0 127 0" result="hardAlpha"/>
<feOffset dx="-4" dy="-4"/>
<feComposite in2="hardAlpha" operator="arithmetic" k2="-1" k3="1"/>
<feColorMatrix type="matrix" values="0 0 0 0 0.482353 0 0 0 0 0.517647 0 0 0 0 0.580392 0 0 0 1 0"/>
<feBlend mode="normal" in2="shape" result="effect1_innerShadow_164_3423"/>
<feColorMatrix in="SourceAlpha" type="matrix" values="0 0 0 0 0 0 0 0 0 0 0 0 0 0 0 0 0 0 127 0" result="hardAlpha"/>
<feOffset dx="-2" dy="-2"/>
<feComposite in2="hardAlpha" operator="arithmetic" k2="-1" k3="1"/>
<feColorMatrix type="matrix" values="0 0 0 0 0.290196 0 0 0 0 0.352941 0 0 0 0 0.419608 0 0 0 1 0"/>
<feBlend mode="normal" in2="effect1_innerShadow_164_3423" result="effect2_innerShadow_164_3423"/>
<feColorMatrix in="SourceAlpha" type="matrix" values="0 0 0 0 0 0 0 0 0 0 0 0 0 0 0 0 0 0 127 0" result="hardAlpha"/>
<feOffset dx="4" dy="4"/>
<feComposite in2="hardAlpha" operator="arithmetic" k2="-1" k3="1"/>
<feColorMatrix type="matrix" values="0 0 0 0 0.937255 0 0 0 0 1 0 0 0 0 1 0 0 0 1 0"/>
<feBlend mode="normal" in2="effect2_innerShadow_164_3423" result="effect3_innerShadow_164_3423"/>
<feColorMatrix in="SourceAlpha" type="matrix" values="0 0 0 0 0 0 0 0 0 0 0 0 0 0 0 0 0 0 127 0" result="hardAlpha"/>
<feOffset dx="2" dy="2"/>
<feComposite in2="hardAlpha" operator="arithmetic" k2="-1" k3="1"/>
<feColorMatrix type="matrix" values="0 0 0 0 0.678431 0 0 0 0 0.709804 0 0 0 0 0.776471 0 0 0 1 0"/>
<feBlend mode="normal" in2="effect3_innerShadow_164_3423" result="effect4_innerShadow_164_3423"/>
<feColorMatrix in="SourceAlpha" type="matrix" values="0 0 0 0 0 0 0 0 0 0 0 0 0 0 0 0 0 0 127 0" result="hardAlpha"/>
<feOffset dx="-2" dy="-2"/>
<feComposite in2="hardAlpha" operator="arithmetic" k2="-1" k3="1"/>
<feColorMatrix type="matrix" values="0 0 0 0 0.290196 0 0 0 0 0.352941 0 0 0 0 0.419608 0 0 0 1 0"/>
<feBlend mode="normal" in2="effect4_innerShadow_164_3423" result="effect5_innerShadow_164_3423"/>
</filter>
<clipPath id="clip0_164_3423">
<rect width="186" height="186" fill="white" transform="translate(25 25)"/>
</clipPath>
</defs>
</svg>
